<?xml version="1.0" encoding="utf-8"?>
<svg viewBox="344.74249267578125 174.47171020507812 59.899932861328125 33.90003967285156" width="59.899932861328125"
	height="33.90003967285156" xmlns="http://www.w3.org/2000/svg">
	<g transform="matrix(1, 0, 0, 1, -92.85753631591797, 83.57173919677736)">
		<path class="st1"
			d="M469.1,119.4l-2-5.3c-0.1-0.2-0.4-0.4-0.6-0.3c-0.2,0.1-0.4,0.4-0.3,0.6l1.9,5h-0.9l0,0.9h2.8l0-0.9H469.1&#10;&#9;&#9;&#9;&#9;&#9;&#9;z M449.1,111.7c0.1-0.2,0.3-0.5,0.4-0.8c0-0.1,0.1-0.1,0.1-0.2c0,0,0,0,0,0c-0.1,0-0.1,0-0.2,0c-1.2,0-2.2,1-2.2,2.2&#10;&#9;&#9;&#9;&#9;&#9;&#9;c0,1.2,1,2.2,2.2,2.2c0.8,0,1.5-0.4,1.9-1.1l-1.1-0.1c-0.2,0.2-0.5,0.3-0.7,0.3c-0.7,0-1.3-0.6-1.3-1.3&#10;&#9;&#9;&#9;&#9;&#9;&#9;C448.2,112.3,448.6,111.8,449.1,111.7z M480.8,92.6c0.3-0.2,0.7-0.4,1.1-0.4c1,0,1.8,0.8,1.8,1.8c0,1-0.8,1.8-1.8,1.8&#10;&#9;&#9;&#9;&#9;&#9;&#9;c-0.4,0-0.7,0.3-0.7,0.7c0,0.4,0.3,0.7,0.7,0.7c1.8,0,3.2-1.4,3.2-3.2c0-0.3,0-0.6-0.1-0.9l0.6-0.4c0.1,0.4,0.2,0.9,0.2,1.3&#10;&#9;&#9;&#9;&#9;&#9;&#9;v2.2c0,0.1,0,0.2,0.1,0.3l0.7,0.7c0.2,0.2,0.5,0.2,0.7,0c0.1-0.1,0.1-0.2,0.1-0.3c0-0.1,0-0.2-0.1-0.3c0,0-0.4-0.4-0.6-0.6&#10;&#9;&#9;&#9;&#9;&#9;&#9;c0-0.3,0-2,0-2c0-1-0.3-2-0.9-2.8c-0.2-0.2-0.4-0.3-0.7-0.1c-0.1,0.1-0.2,0.2-0.2,0.4l-0.7,0.4c-0.6-0.6-1.4-1-2.4-1&#10;&#9;&#9;&#9;&#9;&#9;&#9;c-0.7,0-1.4,0.2-2,0.7c-0.3,0.2-0.4,0.7-0.1,1C480,92.8,480.5,92.9,480.8,92.6z M465.5,116.6c0.2-0.3,0.4-0.6,0.7-0.9&#10;&#9;&#9;&#9;&#9;&#9;&#9;c-0.1-0.2-0.1-0.4-0.2-0.6l-0.5,0l-0.7,1c-0.3-0.3-0.5-0.7-0.6-1.1l-1-0.1c0.3,1.7,1.8,2.9,3.5,2.9c0.1,0,0.2,0,0.3,0&#10;&#9;&#9;&#9;&#9;&#9;&#9;c-0.1-0.3-0.2-0.6-0.3-0.9C466.2,116.9,465.8,116.8,465.5,116.6z M468.9,112.9C468.9,112.9,469,113,468.9,112.9L468.9,112.9&#10;&#9;&#9;&#9;&#9;&#9;&#9;l-1.2,1.4l1.5-0.5c0,0.1,0,0.2,0,0.4c0,0.7-0.3,1.3-0.7,1.8l-0.5-0.6c0.2,0.5,0.4,1.2,0.7,1.7c0.9-0.6,1.5-1.7,1.5-2.9&#10;&#9;&#9;&#9;&#9;&#9;&#9;c0-0.8-0.3-1.5-0.7-2.1L468.9,112.9z M464.5,111.4c-0.6,0.4-1,1-1.2,1.7c0.7,0.1,1.2,0.1,1.6,0.1c-0.2-0.1-0.4-0.1-0.5-0.2&#10;&#9;&#9;&#9;&#9;&#9;&#9;c0.1-0.3,0.3-0.5,0.6-0.7C464.8,112,464.7,111.7,464.5,111.4z M461.3,110.7c-0.6-3.2-2.4-6-5-7.7c-0.2,0.3-0.3,0.5-0.5,0.8&#10;&#9;&#9;&#9;&#9;&#9;&#9;c2.3,1.6,4,4.1,4.6,6.9l-8.5,0c-0.1,0.2-0.2,0.3-0.3,0.5l8.9,0c0.1,0.5,0.1,1.1,0.1,1.7c0.3,0,0.6,0.1,0.9,0.1c0,0,0,0,0,0&#10;&#9;&#9;&#9;&#9;&#9;&#9;c0-0.6,0-1.2-0.1-1.7l3.1,0c-0.1-0.1-0.1-0.3-0.2-0.5L461.3,110.7z M466.7,110.7C466.7,110.7,466.7,110.7,466.7,110.7&#10;&#9;&#9;&#9;&#9;&#9;&#9;C466.6,110.7,466.6,110.7,466.7,110.7h-0.4c0,0.1,0.1,0.2,0.1,0.2c0.3,0.7,0.5,1.3,0.6,1.5c0,0,0.1-0.1,0.2-0.2v-0.5&#10;&#9;&#9;&#9;&#9;&#9;&#9;c0.1,0,0.2,0.1,0.4,0.1c0.2-0.2,0.4-0.5,0.6-0.8C467.7,110.8,467.2,110.7,466.7,110.7L466.7,110.7L466.7,110.7z M463.6,116.8&#10;&#9;&#9;&#9;&#9;&#9;&#9;l-2.6-0.4c0.2-0.5,0.3-1.1,0.4-1.7l-0.9-0.1c-0.1,0.5-0.2,1.1-0.4,1.6l-8.8-1.4c-0.2,0.2-0.4,0.3-0.6,0.4l9.2,1.5&#10;&#9;&#9;&#9;&#9;&#9;&#9;c-1.6,4.2-5.6,7.2-10.4,7.2c-6.1,0-11.1-5-11.1-11.1c0-6.1,5-11.1,11.1-11.1c1.7,0,3.3,0.4,4.7,1c0.2-0.3,0.3-0.5,0.5-0.8&#10;&#9;&#9;&#9;&#9;&#9;&#9;c-1.6-0.7-3.3-1.2-5.1-1.2c-6.6,0-12,5.4-12,12c0,6.6,5.4,12,12,12c5.2,0,9.7-3.3,11.3-8l3.4,0.5&#10;&#9;&#9;&#9;&#9;&#9;&#9;C463.9,117.2,463.7,117,463.6,116.8z M456.3,94.1c1.2,0,2.2-0.3,2.9-0.5c0.6-0.2,1.1-0.3,1.5-0.3h1.9c0.6,0,1.1-0.5,1.1-1.1&#10;&#9;&#9;&#9;&#9;&#9;&#9;c0-0.6-0.5-1.1-1.1-1.1h-8.9c-0.2,0-0.4,0.1-0.6,0.2c-0.2,0.1-0.3,0.3-0.3,0.6C452.9,92.6,454.5,94.1,456.3,94.1z M465.9,113.7&#10;&#9;&#9;&#9;&#9;&#9;&#9;c-2.7-0.2-14.5-1.2-15.7-1.3c0.6-1,6.9-12,8.8-15.3l-0.4-1.1l-9.5,16.5c-0.1,0.1-0.1,0.3,0,0.5c0.1,0.1,0.2,0.2,0.4,0.2&#10;&#9;&#9;&#9;&#9;&#9;&#9;l16.4,1.3c0,0,0,0,0,0c0-0.1-0.1-0.2-0.1-0.3c0-0.1,0-0.3,0.1-0.4C465.8,113.8,465.9,113.8,465.9,113.7z M478.2,95.3&#10;&#9;&#9;&#9;&#9;&#9;&#9;L478.2,95.3l0.4,0.9l0.7,1.8l0,0l0.4,1l0,0l5.4,13.9c0.1,0.2,0.4,0.4,0.6,0.3c0.2-0.1,0.3-0.3,0.3-0.4c0-0.1,0-0.1,0-0.2&#10;&#9;&#9;&#9;&#9;&#9;&#9;c0,0-7.4-18.9-7.8-20.1h1.2c-0.1-0.1-0.1-0.3-0.1-0.5c0-0.2,0-0.3,0.1-0.5h-1.9c-0.2,0-0.3,0.1-0.4,0.2&#10;&#9;&#9;&#9;&#9;&#9;&#9;c-0.1,0.1-0.1,0.3-0.1,0.4L478.2,95.3z M485.5,100.8c-1.2,0-2.4,0.2-3.5,0.5c0.1,0.3,0.2,0.6,0.3,0.9c1-0.3,2-0.5,3.1-0.5&#10;&#9;&#9;&#9;&#9;&#9;&#9;c6.1,0,11.1,5,11.1,11.1c0,6.1-5,11.1-11.1,11.1c-6.1,0-11.1-5-11.1-11.1c0-4.4,2.5-8.1,6.2-9.9l-0.3-0.9&#10;&#9;&#9;&#9;&#9;&#9;&#9;c-4,1.9-6.8,6.1-6.8,10.8c0,6.6,5.4,12,12,12c6.6,0,12-5.4,12-12C497.5,106.2,492.1,100.8,485.5,100.8z M466.3,113.4&#10;&#9;&#9;&#9;&#9;&#9;&#9;c0.2-0.1,0.5-0.1,0.7,0c0.2,0.1,0.4,0.3,0.5,0.5l11.8-14.4l-0.4-1c-2.1,2.6-10.3,12.6-12.1,14.8l-6.6-17H478l-0.4-0.9h-17.9&#10;&#9;&#9;&#9;&#9;&#9;&#9;l-0.5-1.3c-0.3,0.1-0.6,0.2-0.9,0.3l0.3,0.7l0.6,1.7l0,0l1.1,2.8l1,2.4l4.6,11.8C466,113.5,466.2,113.4,466.3,113.4z"
			style="fill: oklch(0.8545 0.1675 159.6564);" />
	</g>
</svg>